<?xml version="1.0" encoding="utf-8"?>
<!-- Generator: Adobe Illustrator 22.1.0, SVG Export Plug-In . SVG Version: 6.00 Build 0)  -->
<svg version="1.1" id="MKTG_ICN_1" xmlns="http://www.w3.org/2000/svg" xmlns:xlink="http://www.w3.org/1999/xlink" x="0px" y="0px"
	 viewBox="0 0 1024 1024" style="enable-background:new 0 0 1024 1024;" xml:space="preserve">
<style type="text/css">
	.st0{fill:none;stroke:#65A637;stroke-width:25;stroke-linecap:round;stroke-linejoin:round;}
	.st1{fill:none;stroke:#65A637;stroke-width:25;stroke-linecap:round;stroke-linejoin:round;stroke-miterlimit:10;}
</style>
<title>Reduce Cybersecurity Threats</title>
<path class="st0" d="M572.5,291.5c-168.1-6.6-268.7-87.6-268.7-87.6s-100.5,81-268.6,87.6c-12.1,0.5-22,10.4-21.7,22.4
	C22,715.3,263,820.1,303.8,820.1s281.8-104.8,290.3-506.2C594.4,301.8,584.6,292,572.5,291.5z"/>
<path class="st1" d="M258.3,368.6c-1.2-0.8-2.8-0.8-3.9,0l-37.5,21.7c-1.2,0.7-1.9,2.1-1.7,3.6l6.3,41.6c0.1,0.9-0.1,1.8-0.6,2.6
	c-4,5.5-7.5,11.5-10.3,17.7c-0.4,0.8-1,1.5-1.9,1.8l-39,15.3c-1.3,0.5-2.2,1.8-2.3,3.3v43.5c0,1.4,0.9,2.7,2.3,3.3l38.4,15.1
	c0.8,0.3,1.5,1,1.9,1.8c2.9,6.6,6.6,12.9,10.8,18.8c0.5,0.7,0.8,1.7,0.6,2.6l-6.3,40.7c-0.2,1.4,0.4,2.8,1.7,3.6l37.5,21.7
	c1.2,0.8,2.8,0.8,3.9,0l31.9-25.5c0.7-0.6,1.6-0.9,2.6-0.8c3.7,0.4,7.4,0.7,11.1,0.7s7.5-0.2,11.2-0.6c0.9-0.1,1.8,0.2,2.6,0.8
	l31.9,25.5c1.2,0.8,2.8,0.8,3.9,0l37.5-21.7c1.2-0.7,1.9-2.1,1.7-3.6l-6.3-40.7c-0.1-0.9,0.1-1.8,0.6-2.6
	c4.3-5.9,7.9-12.1,10.8-18.8c0.4-0.8,1-1.5,1.9-1.8l38.4-15.1c1.3-0.5,2.2-1.8,2.3-3.3v-43.9c0-1.4-0.9-2.7-2.3-3.3l-39-15.3
	c-0.8-0.3-1.5-1-1.9-1.8c-2.8-6.2-6.3-12.1-10.3-17.6c-0.5-0.7-0.8-1.7-0.6-2.6l6.3-41.7c0.2-1.4-0.4-2.8-1.7-3.6l-37.5-21.7
	c-1.2-0.8-2.8-0.8-3.9,0l-33.2,26.5c-0.7,0.6-1.6,0.8-2.5,0.8c-3.3-0.3-6.3-0.6-9.9-0.6s-6.6,0-9.9,0.5c-0.9,0.1-1.8-0.2-2.5-0.8
	L258.3,368.6z M303.8,450.1c27.1,0,48.9,22.6,47.6,49.9c-1.1,24.4-20.9,44.2-45.3,45.3c-27.3,1.3-49.9-20.5-49.9-47.6
	C256.1,471.4,277.4,450,303.8,450.1C303.7,450,303.7,450,303.8,450.1L303.8,450.1z"/>
</svg>
