<?xml version="1.0" encoding="utf-8"?>
<!-- Generator: Adobe Illustrator 22.1.0, SVG Export Plug-In . SVG Version: 6.00 Build 0)  -->
<svg version="1.1" id="MKTG_ICN_1" xmlns="http://www.w3.org/2000/svg" xmlns:xlink="http://www.w3.org/1999/xlink" x="0px" y="0px"
	 viewBox="0 0 1024 1024" style="enable-background:new 0 0 1024 1024;" xml:space="preserve">
<style type="text/css">
	.st0{fill:none;stroke:#65A637;stroke-width:25;stroke-linecap:round;stroke-linejoin:round;}
</style>
<title>Splunk IT Service Intelligence (ITSI)</title>
<path class="st0" d="M94.5,674.5V362.8c0-22.3,18-40.3,40.3-40.3h474.4c22.3,0,40.3,18,40.3,40.3v310.7"/>
<path class="st0" d="M730.4,674.5c0,28.7-23.3,52-52,52H65.6c-28.7,0-52-23.3-52-52H730.4z"/>
<path class="st0" d="M563.5,495.2c3.5,3.7,3.5,9.5,0,13.2c-21.7,23-99.6,98-192.5,98s-170.8-75-192.5-98c-3.5-3.7-3.5-9.5,0-13.2
	c21.7-23,99.6-98,192.5-98S541.8,472.2,563.5,495.2z"/>
<line class="st0" x1="295.5" y1="507.5" x2="295.5" y2="590.5"/>
<line class="st0" x1="345.5" y1="443.5" x2="345.5" y2="604.5"/>
<line class="st0" x1="396.5" y1="543.5" x2="396.5" y2="604.5"/>
<line class="st0" x1="446.5" y1="507.5" x2="446.5" y2="588.5"/>
</svg>
