<?xml version="1.0" encoding="utf-8"?>
<!-- Generator: Adobe Illustrator 21.1.0, SVG Export Plug-In . SVG Version: 6.00 Build 0)  -->
<svg version="1.1" id="MKTG_ICN_1" xmlns="http://www.w3.org/2000/svg" xmlns:xlink="http://www.w3.org/1999/xlink" x="0px" y="0px"
	 viewBox="0 0 1024 1024" style="enable-background:new 0 0 1024 1024;" xml:space="preserve">
<style type="text/css">
	.st0{fill:none;stroke:#65A637;stroke-width:25;stroke-linecap:round;stroke-linejoin:round;}
</style>
<title>Splunk Enterprise</title>
<line class="st0" x1="15.5" y1="1009" x2="540.5" y2="1009"/>
<polyline class="st0" points="76.5,1008 76.5,530 299.5,530 299.5,1008 "/>
<polyline class="st0" points="141.5,1009 141.5,911 233.5,911 233.5,1009 "/>
<line class="st0" x1="436.5" y1="936" x2="345.5" y2="936"/>
<line class="st0" x1="436.5" y1="872" x2="345.5" y2="872"/>
<line class="st0" x1="436.5" y1="679" x2="345.5" y2="679"/>
<line class="st0" x1="436.5" y1="808" x2="345.5" y2="808"/>
<line class="st0" x1="436.5" y1="743" x2="345.5" y2="743"/>
<polyline class="st0" points="480.5,1009 480.5,609 301.5,609 "/>
<line class="st0" x1="143.5" y1="683" x2="143.5" y2="689"/>
<line class="st0" x1="233.5" y1="683" x2="233.5" y2="689"/>
<line class="st0" x1="143.5" y1="757" x2="143.5" y2="763"/>
<line class="st0" x1="233.5" y1="757" x2="233.5" y2="763"/>
<line class="st0" x1="143.5" y1="831" x2="143.5" y2="837"/>
<line class="st0" x1="233.5" y1="831" x2="233.5" y2="837"/>
<line class="st0" x1="143.5" y1="609" x2="143.5" y2="615"/>
<line class="st0" x1="233.5" y1="609" x2="233.5" y2="615"/>
</svg>
