<?xml version="1.0" encoding="utf-8"?>
<!-- Generator: Adobe Illustrator 22.1.0, SVG Export Plug-In . SVG Version: 6.00 Build 0)  -->
<svg version="1.1" id="MKTG_ICN_1" xmlns="http://www.w3.org/2000/svg" xmlns:xlink="http://www.w3.org/1999/xlink" x="0px" y="0px"
	 viewBox="0 0 1024 1024" style="enable-background:new 0 0 1024 1024;" xml:space="preserve">
<style type="text/css">
	.st0{fill:none;stroke:#65A637;stroke-width:25;stroke-linecap:round;stroke-linejoin:round;}
</style>
<title>Splunk Enterprise Security (ES)</title>
<path class="st0" d="M652.9,512c-95.2-3.7-152.1-49.6-152.1-49.6s-56.9,45.9-152,49.6c-6.9,0.2-12.3,5.8-12.3,12.7
	c4.8,227.3,141.2,286.6,164.3,286.6c23.1,0,159.5-59.3,164.3-286.6C665.2,517.9,659.8,512.2,652.9,512z"/>
<path class="st0" d="M297.8,650.5H28.4c-8.1,0-14.6-6.5-14.6-14.6l0,0V334.1c0-8.1,6.5-14.6,14.6-14.6h176.4"/>
<path class="st0" d="M346.8,319.5h176.4c8.1,0,14.6,6.5,14.6,14.6l0,0v69.4"/>
<path class="st0" d="M105.9,503.6c-31.8,14.7-40.3,42.1-42.5,58c-1.5,10.7,5.2,20.8,15.6,23.5c25.9,6.7,51.7,9.1,74.9,9.1
	c27.5,0,54.9-3.1,81.7-9.2c10.8-2.4,17.9-12.8,16.2-23.7c-2.3-16.2-11.2-44.6-45.1-58.9"/>
<path class="st0" d="M157.6,480.5c28.8,0,52.3-25.9,52.3-57.7s-23.5-57.7-52.3-57.7s-52.3,25.9-52.3,57.7S128.8,480.5,157.6,480.5z"
	/>
<line class="st0" x1="275.8" y1="249.5" x2="275.8" y2="354.5"/>
<polyline class="st0" points="445.8,642.1 486.1,681.2 572.4,581.6 "/>
</svg>
